<?xml version="1.0" encoding="UTF-8"?>
<svg id="icons" xmlns="http://www.w3.org/2000/svg" viewBox="0 0 100 70">
  <defs>
    <style>
      .cls-1 {
        stroke: #c8102e;
        stroke-miterlimit: 10;
      }

      .cls-1, .cls-2, .cls-3 {
        stroke-width: 1.5px;
      }

      .cls-1, .cls-3 {
        fill: none;
      }

      .cls-2 {
        fill: #fff;
      }

      .cls-2, .cls-3 {
        stroke: #c91235;
        stroke-linecap: round;
        stroke-linejoin: round;
      }

      .cls-4 {
        fill: #c91235;
      }
    </style>
  </defs>
  <circle class="cls-2" cx="50.63" cy="36.99" r="18.8"/>
  <g>
    <path class="cls-1" d="M46.54,39.04v1.36c0,1.35,1.25,2.72,2.75,2.72h2.69c1.5,0,2.72-1.37,2.72-2.72v-.41c0-1.05-.73-1.99-1.85-2.32l-4.45-1.33c-1.11-.33-1.87-1.27-1.87-2.32v-.41c0-1.35,1.22-2.72,2.72-2.72h2.72c1.5,0,2.72,1.37,2.72,2.72v1.36"/>
    <line class="cls-1" x1="50.63" y1="30.87" x2="50.63" y2="26.79"/>
    <line class="cls-1" x1="50.63" y1="43.12" x2="50.63" y2="47.2"/>
  </g>
  <g>
    <line class="cls-3" x1="77.06" y1="24.02" x2="77.06" y2="50.18"/>
    <polygon class="cls-4" points="74.52 47.19 77.06 49.74 79.61 47.19 79.61 49.35 77.06 51.89 74.52 49.35 74.52 47.19"/>
  </g>
  <g>
    <line class="cls-3" x1="84.75" y1="14.4" x2="84.75" y2="40.57"/>
    <polygon class="cls-4" points="82.21 37.58 84.75 40.12 87.3 37.58 87.3 39.74 84.75 42.28 82.21 39.74 82.21 37.58"/>
  </g>
  <g>
    <line class="cls-3" x1="17.22" y1="24.69" x2="17.22" y2="50.85"/>
    <polygon class="cls-4" points="14.68 47.87 17.22 50.41 19.76 47.87 19.76 50.02 17.22 52.57 14.68 50.02 14.68 47.87"/>
  </g>
  <g>
    <line class="cls-3" x1="24.91" y1="15.07" x2="24.91" y2="41.24"/>
    <polygon class="cls-4" points="22.37 38.25 24.91 40.8 27.45 38.25 27.45 40.41 24.91 42.95 22.37 40.41 22.37 38.25"/>
  </g>
</svg>