<?xml version="1.0" encoding="UTF-8"?><svg id="Layer_2" xmlns="http://www.w3.org/2000/svg" viewBox="0 0 83.85 70"><defs><style>.cls-1{fill:#c8102e;}</style></defs><g id="icons"><g id="Layer_1-2"><path class="cls-1" d="M22.19,45.27c-8.97,0-16.27-7.3-16.27-16.27S13.22,12.74,22.19,12.74s16.26,7.3,16.26,16.27-7.3,16.27-16.26,16.27ZM22.19,15.06c-7.69,0-13.94,6.26-13.94,13.94s6.26,13.94,13.94,13.94,13.94-6.26,13.94-13.94-6.26-13.94-13.94-13.94Z"/><path class="cls-1" d="M43.22,70H1.16c-.64,0-1.16-.52-1.16-1.16v-4.32c0-8.61,6.82-14.63,16.59-14.63h11.21c9.77,0,16.59,6.02,16.59,14.63v4.32c0,.64-.52,1.16-1.16,1.16h0ZM2.32,67.68h39.74v-3.16c0-8.5-7.16-12.31-14.27-12.31h-11.21c-7.1,0-14.27,3.8-14.27,12.31v3.16h0Z"/><path class="cls-1" d="M56.18,27.46c-4.57,0-8.28-3.72-8.28-8.29s3.72-8.28,8.28-8.28,8.28,3.72,8.28,8.28-3.72,8.29-8.28,8.29ZM56.18,13.21c-3.29,0-5.96,2.67-5.96,5.96s2.67,5.96,5.96,5.96,5.96-2.67,5.96-5.96-2.67-5.96-5.96-5.96Z"/><path class="cls-1" d="M66.1,39.12h-19.84c-.64,0-1.16-.52-1.16-1.16v-2.04c0-4.42,3.47-7.51,8.44-7.51h5.28c4.97,0,8.44,3.09,8.44,7.51v2.04c0,.64-.52,1.16-1.16,1.16h0ZM47.43,36.79h17.51v-.88c0-3.58-3.07-5.19-6.11-5.19h-5.28c-3.04,0-6.11,1.6-6.11,5.19v.88h0Z"/><path class="cls-1" d="M77.43,50c-.64,0-1.16-.52-1.16-1.16V2.32H9.92v8.58c0,.64-.52,1.16-1.16,1.16s-1.16-.52-1.16-1.16V1.16c0-.64.52-1.16,1.16-1.16h68.67c.64,0,1.16.52,1.16,1.16v47.68c0,.64-.52,1.16-1.16,1.16h0Z"/><path class="cls-1" d="M72.47,45.65h-35.56c-.64,0-1.16-.52-1.16-1.16s.52-1.16,1.16-1.16h34.4V7.44H14.88v3.46c0,.64-.52,1.16-1.16,1.16s-1.16-.52-1.16-1.16v-4.62c0-.64.52-1.16,1.16-1.16h58.75c.64,0,1.16.52,1.16,1.16v38.2c0,.64-.52,1.16-1.16,1.16h0Z"/><path class="cls-1" d="M78.88,56.64h-33.6c-.64,0-1.16-.52-1.16-1.16s.52-1.16,1.16-1.16h33.6c1.46,0,2.65-1.19,2.65-2.65v-1.67h-28.88v.74c0,.64-.52,1.16-1.16,1.16h-10.1c-.64,0-1.16-.52-1.16-1.16s.52-1.16,1.16-1.16h8.94v-.74c0-.64.52-1.16,1.16-1.16h31.2c.64,0,1.16.52,1.16,1.16v2.83c0,2.74-2.23,4.97-4.97,4.97h0Z"/></g></g></svg>