<?xml version="1.0" encoding="UTF-8"?><svg id="Layer_2" xmlns="http://www.w3.org/2000/svg" viewBox="0 0 100 65.27"><defs><style>.cls-1{fill:#c8102e;}</style></defs><g id="icons"><g id="Layer_1-2"><path class="cls-1" d="M52.31,35.33c-.14,0-.27-.02-.41-.06L5.5,19.84c-.52-.17-.87-.65-.88-1.2-.01-.54.33-1.04.84-1.23L51.86.08c.29-.11.61-.11.9,0l46.4,17.33c.51.19.85.68.84,1.23,0,.54-.36,1.03-.88,1.2l-46.4,15.42c-.13.04-.27.06-.41.06h0ZM9.78,18.55l42.53,14.14,42.53-14.14L52.31,2.66,9.78,18.55Z"/><path class="cls-1" d="M27.78,51.29h0c-.71,0-1.29-.58-1.29-1.29v-24.07c0-.71.59-1.29,1.3-1.29h0c.71,0,1.29.58,1.29,1.29v24.07c0,.71-.59,1.29-1.3,1.29h0Z"/><path class="cls-1" d="M76.84,51.29h0c-.71,0-1.29-.58-1.29-1.29v-24.07c0-.71.59-1.29,1.3-1.29h0c.71,0,1.29.58,1.29,1.29v24.07c0,.71-.59,1.29-1.3,1.29Z"/><path class="cls-1" d="M52.31,59.01c-12.83,0-25.82-3.06-25.82-8.9,0-.08,0-.23.05-.42.18-.69.88-1.1,1.57-.93.63.16,1.03.76.96,1.39.11,2.64,8.93,6.28,23.25,6.28s23.16-3.65,23.25-6.28c-.07-.63.33-1.23.96-1.39.69-.18,1.39.24,1.57.93.05.19.05.35.05.42,0,5.84-12.99,8.9-25.82,8.9h0Z"/><path class="cls-1" d="M5.91,35.83c-.71,0-1.29-.58-1.29-1.29v-15.92c0-.71.58-1.29,1.29-1.29h46.4c.71,0,1.29.58,1.29,1.29s-.58,1.29-1.29,1.29H7.2v14.63c0,.71-.58,1.29-1.29,1.29Z"/><path class="cls-1" d="M5.91,45.07c-3.26,0-5.91-2.65-5.91-5.91s2.65-5.91,5.91-5.91,5.91,2.65,5.91,5.91-2.65,5.91-5.91,5.91ZM5.91,35.83c-1.84,0-3.34,1.49-3.34,3.34s1.49,3.34,3.34,3.34,3.34-1.49,3.34-3.34-1.49-3.34-3.34-3.34Z"/><path class="cls-1" d="M7.54,65.27h-3.26c-1.3,0-2.49-.59-3.28-1.62-.79-1.03-1.06-2.33-.72-3.59l4.39-16.62c.15-.56.66-.96,1.24-.96h0c.58,0,1.09.39,1.24.96l4.39,16.62c.33,1.25.07,2.56-.72,3.59s-1.99,1.62-3.28,1.62ZM5.91,48.82l-3.15,11.91c-.13.47-.03.97.27,1.36s.75.61,1.24.61h3.26c.49,0,.94-.22,1.24-.61.3-.39.4-.88.27-1.36l-3.15-11.91Z"/></g></g></svg>